<svg xmlns="http://www.w3.org/2000/svg" xmlns:xlink="http://www.w3.org/1999/xlink" width="500" zoomAndPan="magnify" viewBox="0 0 375 374.999991" height="500" preserveAspectRatio="xMidYMid meet" version="1.0"><defs><g/><clipPath id="741a522c9b"><rect x="0" width="150" y="0" height="144"/></clipPath><clipPath id="22ad3fd23e"><rect x="0" width="197" y="0" height="34"/></clipPath></defs><rect x="-37.5" width="450" fill="#ffffff" y="-37.499999" height="449.999989" fill-opacity="1"/><rect x="-37.5" width="450" fill="#ffffff" y="-37.499999" height="449.999989" fill-opacity="1"/><g transform="matrix(1, 0, 0, 1, 45, 112)"><g clip-path="url(#741a522c9b)"><g fill="#3d3b3a" fill-opacity="1"><g transform="translate(1.167785, 130.638221)"><g><path d="M 75.75 -1.78125 C 76.144531 -1.300781 76.222656 -0.882812 75.984375 -0.53125 C 75.742188 -0.175781 75.304688 0 74.671875 0 L 54.25 0 C 53.78125 0 53.425781 -0.117188 53.1875 -0.359375 L 25.53125 -34.546875 C 25.132812 -34.148438 24.242188 -33.179688 22.859375 -31.640625 C 21.472656 -30.097656 19.804688 -28.238281 17.859375 -26.0625 C 15.921875 -23.882812 13.921875 -21.628906 11.859375 -19.296875 C 9.804688 -16.960938 7.867188 -14.765625 6.046875 -12.703125 C 4.234375 -10.640625 2.769531 -8.972656 1.65625 -7.703125 C 0.550781 -6.441406 0 -5.8125 0 -5.8125 L 0 -93.90625 C 0 -94.613281 0.4375 -94.96875 1.3125 -94.96875 L 16.984375 -94.96875 C 17.765625 -94.96875 18.15625 -94.613281 18.15625 -93.90625 L 18.15625 -50.6875 L 53.890625 -94.625 C 54.128906 -94.851562 54.488281 -94.96875 54.96875 -94.96875 L 74.3125 -94.96875 C 74.945312 -94.96875 75.382812 -94.769531 75.625 -94.375 C 75.863281 -93.976562 75.785156 -93.582031 75.390625 -93.1875 L 37.640625 -46.65625 Z M 75.75 -1.78125 "/></g></g></g><g fill="#3d3b3a" fill-opacity="1"><g transform="translate(81.063658, 130.638221)"><g><path d="M 31.9375 -94.96875 C 32.726562 -94.96875 34.3125 -94.867188 36.6875 -94.671875 C 39.0625 -94.472656 41.769531 -93.921875 44.8125 -93.015625 C 47.863281 -92.109375 50.851562 -90.644531 53.78125 -88.625 C 56.707031 -86.601562 59.140625 -83.8125 61.078125 -80.25 C 63.015625 -76.6875 63.984375 -72.097656 63.984375 -66.484375 C 63.984375 -61.816406 63.269531 -57.878906 61.84375 -54.671875 C 60.425781 -51.460938 58.550781 -48.828125 56.21875 -46.765625 C 53.882812 -44.710938 51.410156 -43.09375 48.796875 -41.90625 C 46.179688 -40.71875 43.664062 -39.863281 41.25 -39.34375 C 38.84375 -38.832031 36.785156 -38.519531 35.078125 -38.40625 C 33.378906 -38.289062 32.332031 -38.234375 31.9375 -38.234375 L 17.8125 -38.234375 L 17.8125 -1.0625 C 17.8125 -0.351562 17.414062 0 16.625 0 L 1.1875 0 C 0.394531 0 0 -0.351562 0 -1.0625 L 0 -55.796875 L 31.9375 -55.796875 C 32.570312 -55.796875 33.617188 -55.875 35.078125 -56.03125 C 36.546875 -56.1875 38.128906 -56.582031 39.828125 -57.21875 C 41.523438 -57.851562 42.96875 -58.898438 44.15625 -60.359375 C 45.34375 -61.828125 45.9375 -63.867188 45.9375 -66.484375 C 45.9375 -69.097656 45.320312 -71.15625 44.09375 -72.65625 C 42.875 -74.15625 41.410156 -75.242188 39.703125 -75.921875 C 38.003906 -76.597656 36.421875 -77.03125 34.953125 -77.21875 C 33.492188 -77.414062 32.488281 -77.515625 31.9375 -77.515625 L 0 -77.515625 L 0 -93.90625 C 0 -94.613281 0.394531 -94.96875 1.1875 -94.96875 Z M 31.9375 -94.96875 "/></g></g></g></g></g><g transform="matrix(1, 0, 0, 1, 156, 216)"><g clip-path="url(#22ad3fd23e)"><g fill="#3d3b3a" fill-opacity="1"><g transform="translate(0.249062, 26.269205)"><g><path d="M 16.828125 -3.5 L 16.828125 0 L 2.234375 0 L 2.234375 -18.859375 L 16.484375 -18.859375 L 16.484375 -15.359375 L 6.578125 -15.359375 L 6.578125 -11.265625 L 15.328125 -11.265625 L 15.328125 -7.859375 L 6.578125 -7.859375 L 6.578125 -3.5 Z M 16.828125 -3.5 "/></g></g></g><g fill="#3d3b3a" fill-opacity="1"><g transform="translate(18.328353, 26.269205)"><g><path d="M 19.53125 -18.859375 L 19.53125 0 L 15.953125 0 L 6.546875 -11.453125 L 6.546875 0 L 2.234375 0 L 2.234375 -18.859375 L 5.84375 -18.859375 L 15.21875 -7.40625 L 15.21875 -18.859375 Z M 19.53125 -18.859375 "/></g></g></g><g fill="#3d3b3a" fill-opacity="1"><g transform="translate(40.098956, 26.269205)"><g><path d="M 6.140625 -15.296875 L 0.109375 -15.296875 L 0.109375 -18.859375 L 16.546875 -18.859375 L 16.546875 -15.296875 L 10.5 -15.296875 L 10.5 0 L 6.140625 0 Z M 6.140625 -15.296875 "/></g></g></g><g fill="#3d3b3a" fill-opacity="1"><g transform="translate(56.750227, 26.269205)"><g><path d="M 16.828125 -3.5 L 16.828125 0 L 2.234375 0 L 2.234375 -18.859375 L 16.484375 -18.859375 L 16.484375 -15.359375 L 6.578125 -15.359375 L 6.578125 -11.265625 L 15.328125 -11.265625 L 15.328125 -7.859375 L 6.578125 -7.859375 L 6.578125 -3.5 Z M 16.828125 -3.5 "/></g></g></g><g fill="#3d3b3a" fill-opacity="1"><g transform="translate(74.829518, 26.269205)"><g><path d="M 14.25 0 L 10.609375 -5.25 L 6.59375 -5.25 L 6.59375 0 L 2.234375 0 L 2.234375 -18.859375 L 10.390625 -18.859375 C 12.066406 -18.859375 13.519531 -18.578125 14.75 -18.015625 C 15.976562 -17.460938 16.925781 -16.671875 17.59375 -15.640625 C 18.257812 -14.617188 18.59375 -13.410156 18.59375 -12.015625 C 18.59375 -10.609375 18.253906 -9.398438 17.578125 -8.390625 C 16.898438 -7.378906 15.941406 -6.601562 14.703125 -6.0625 L 18.9375 0 Z M 14.171875 -12.015625 C 14.171875 -13.078125 13.828125 -13.890625 13.140625 -14.453125 C 12.460938 -15.015625 11.46875 -15.296875 10.15625 -15.296875 L 6.59375 -15.296875 L 6.59375 -8.734375 L 10.15625 -8.734375 C 11.46875 -8.734375 12.460938 -9.019531 13.140625 -9.59375 C 13.828125 -10.164062 14.171875 -10.972656 14.171875 -12.015625 Z M 14.171875 -12.015625 "/></g></g></g><g fill="#3d3b3a" fill-opacity="1"><g transform="translate(94.633212, 26.269205)"><g><path d="M 10.390625 -18.859375 C 12.066406 -18.859375 13.519531 -18.578125 14.75 -18.015625 C 15.976562 -17.460938 16.925781 -16.671875 17.59375 -15.640625 C 18.257812 -14.617188 18.59375 -13.410156 18.59375 -12.015625 C 18.59375 -10.628906 18.257812 -9.421875 17.59375 -8.390625 C 16.925781 -7.359375 15.976562 -6.566406 14.75 -6.015625 C 13.519531 -5.472656 12.066406 -5.203125 10.390625 -5.203125 L 6.59375 -5.203125 L 6.59375 0 L 2.234375 0 L 2.234375 -18.859375 Z M 10.15625 -8.75 C 11.46875 -8.75 12.460938 -9.03125 13.140625 -9.59375 C 13.828125 -10.164062 14.171875 -10.972656 14.171875 -12.015625 C 14.171875 -13.078125 13.828125 -13.890625 13.140625 -14.453125 C 12.460938 -15.015625 11.46875 -15.296875 10.15625 -15.296875 L 6.59375 -15.296875 L 6.59375 -8.75 Z M 10.15625 -8.75 "/></g></g></g><g fill="#3d3b3a" fill-opacity="1"><g transform="translate(114.356072, 26.269205)"><g><path d="M 14.25 0 L 10.609375 -5.25 L 6.59375 -5.25 L 6.59375 0 L 2.234375 0 L 2.234375 -18.859375 L 10.390625 -18.859375 C 12.066406 -18.859375 13.519531 -18.578125 14.75 -18.015625 C 15.976562 -17.460938 16.925781 -16.671875 17.59375 -15.640625 C 18.257812 -14.617188 18.59375 -13.410156 18.59375 -12.015625 C 18.59375 -10.609375 18.253906 -9.398438 17.578125 -8.390625 C 16.898438 -7.378906 15.941406 -6.601562 14.703125 -6.0625 L 18.9375 0 Z M 14.171875 -12.015625 C 14.171875 -13.078125 13.828125 -13.890625 13.140625 -14.453125 C 12.460938 -15.015625 11.46875 -15.296875 10.15625 -15.296875 L 6.59375 -15.296875 L 6.59375 -8.734375 L 10.15625 -8.734375 C 11.46875 -8.734375 12.460938 -9.019531 13.140625 -9.59375 C 13.828125 -10.164062 14.171875 -10.972656 14.171875 -12.015625 Z M 14.171875 -12.015625 "/></g></g></g><g fill="#3d3b3a" fill-opacity="1"><g transform="translate(134.159767, 26.269205)"><g><path d="M 2.234375 -18.859375 L 6.59375 -18.859375 L 6.59375 0 L 2.234375 0 Z M 2.234375 -18.859375 "/></g></g></g><g fill="#3d3b3a" fill-opacity="1"><g transform="translate(142.997334, 26.269205)"><g><path d="M 8.4375 0.328125 C 6.945312 0.328125 5.503906 0.125 4.109375 -0.28125 C 2.710938 -0.6875 1.59375 -1.210938 0.75 -1.859375 L 2.234375 -5.140625 C 3.046875 -4.546875 4.003906 -4.066406 5.109375 -3.703125 C 6.222656 -3.347656 7.335938 -3.171875 8.453125 -3.171875 C 9.691406 -3.171875 10.609375 -3.351562 11.203125 -3.71875 C 11.796875 -4.09375 12.09375 -4.585938 12.09375 -5.203125 C 12.09375 -5.648438 11.914062 -6.019531 11.5625 -6.3125 C 11.21875 -6.613281 10.769531 -6.851562 10.21875 -7.03125 C 9.675781 -7.207031 8.9375 -7.40625 8 -7.625 C 6.5625 -7.96875 5.382812 -8.304688 4.46875 -8.640625 C 3.550781 -8.984375 2.765625 -9.53125 2.109375 -10.28125 C 1.453125 -11.039062 1.125 -12.050781 1.125 -13.3125 C 1.125 -14.40625 1.421875 -15.394531 2.015625 -16.28125 C 2.609375 -17.164062 3.5 -17.867188 4.6875 -18.390625 C 5.882812 -18.910156 7.347656 -19.171875 9.078125 -19.171875 C 10.273438 -19.171875 11.445312 -19.023438 12.59375 -18.734375 C 13.75 -18.453125 14.757812 -18.046875 15.625 -17.515625 L 14.28125 -14.203125 C 12.53125 -15.179688 10.785156 -15.671875 9.046875 -15.671875 C 7.828125 -15.671875 6.925781 -15.472656 6.34375 -15.078125 C 5.757812 -14.691406 5.46875 -14.171875 5.46875 -13.515625 C 5.46875 -12.867188 5.800781 -12.390625 6.46875 -12.078125 C 7.144531 -11.765625 8.175781 -11.457031 9.5625 -11.15625 C 11 -10.8125 12.175781 -10.46875 13.09375 -10.125 C 14.007812 -9.78125 14.796875 -9.238281 15.453125 -8.5 C 16.109375 -7.769531 16.4375 -6.773438 16.4375 -5.515625 C 16.4375 -4.441406 16.132812 -3.457031 15.53125 -2.5625 C 14.925781 -1.675781 14.019531 -0.972656 12.8125 -0.453125 C 11.613281 0.0664062 10.15625 0.328125 8.4375 0.328125 Z M 8.4375 0.328125 "/></g></g></g><g fill="#3d3b3a" fill-opacity="1"><g transform="translate(160.187475, 26.269205)"><g><path d="M 16.828125 -3.5 L 16.828125 0 L 2.234375 0 L 2.234375 -18.859375 L 16.484375 -18.859375 L 16.484375 -15.359375 L 6.578125 -15.359375 L 6.578125 -11.265625 L 15.328125 -11.265625 L 15.328125 -7.859375 L 6.578125 -7.859375 L 6.578125 -3.5 Z M 16.828125 -3.5 "/></g></g></g><g fill="#3d3b3a" fill-opacity="1"><g transform="translate(178.266766, 26.269205)"><g><path d="M 8.4375 0.328125 C 6.945312 0.328125 5.503906 0.125 4.109375 -0.28125 C 2.710938 -0.6875 1.59375 -1.210938 0.75 -1.859375 L 2.234375 -5.140625 C 3.046875 -4.546875 4.003906 -4.066406 5.109375 -3.703125 C 6.222656 -3.347656 7.335938 -3.171875 8.453125 -3.171875 C 9.691406 -3.171875 10.609375 -3.351562 11.203125 -3.71875 C 11.796875 -4.09375 12.09375 -4.585938 12.09375 -5.203125 C 12.09375 -5.648438 11.914062 -6.019531 11.5625 -6.3125 C 11.21875 -6.613281 10.769531 -6.851562 10.21875 -7.03125 C 9.675781 -7.207031 8.9375 -7.40625 8 -7.625 C 6.5625 -7.96875 5.382812 -8.304688 4.46875 -8.640625 C 3.550781 -8.984375 2.765625 -9.53125 2.109375 -10.28125 C 1.453125 -11.039062 1.125 -12.050781 1.125 -13.3125 C 1.125 -14.40625 1.421875 -15.394531 2.015625 -16.28125 C 2.609375 -17.164062 3.5 -17.867188 4.6875 -18.390625 C 5.882812 -18.910156 7.347656 -19.171875 9.078125 -19.171875 C 10.273438 -19.171875 11.445312 -19.023438 12.59375 -18.734375 C 13.75 -18.453125 14.757812 -18.046875 15.625 -17.515625 L 14.28125 -14.203125 C 12.53125 -15.179688 10.785156 -15.671875 9.046875 -15.671875 C 7.828125 -15.671875 6.925781 -15.472656 6.34375 -15.078125 C 5.757812 -14.691406 5.46875 -14.171875 5.46875 -13.515625 C 5.46875 -12.867188 5.800781 -12.390625 6.46875 -12.078125 C 7.144531 -11.765625 8.175781 -11.457031 9.5625 -11.15625 C 11 -10.8125 12.175781 -10.46875 13.09375 -10.125 C 14.007812 -9.78125 14.796875 -9.238281 15.453125 -8.5 C 16.109375 -7.769531 16.4375 -6.773438 16.4375 -5.515625 C 16.4375 -4.441406 16.132812 -3.457031 15.53125 -2.5625 C 14.925781 -1.675781 14.019531 -0.972656 12.8125 -0.453125 C 11.613281 0.0664062 10.15625 0.328125 8.4375 0.328125 Z M 8.4375 0.328125 "/></g></g></g></g></g><path stroke-linecap="butt" transform="matrix(0.75, -0.000000000000001302, 0.000000000000001302, 0.75, 45.972757, 248.184533)" fill="none" stroke-linejoin="miter" d="M -0.000134975 8.998748 L 131.906124 8.998748 " stroke="#3d3b3a" stroke-width="18" stroke-opacity="1" stroke-miterlimit="4"/></svg>